# xmcd
#
# Track frame offsets:
#	150
#	18777
#	35080
#	48327
#
# Disc length: 1166 seconds
#
# Revision: 1
# Processed by: cddbd v1.4PL0 Copyright (c) Steve Scherf et al.
# Submitted via: audiograbber 1.80
#
DISCID=28048c04
DTITLE=Keb' Mo' - That's Not Love
DYEAR=1900
DGENRE=
TTITLE0=That's Not Love
TTITLE1=Take It Away
TTITLE2=The Glory Of Love
TTITLE3=Cross Road Blues
EXTD=
EXTT0=
EXTT1=
EXTT2=
EXTT3=
PLAYORDER=
